<svg xmlns="http://www.w3.org/2000/svg" viewBox="0 0 390 480" xml:space="preserve">
  <switch>
    <g>
      <path d="M195 .9c27.9.3 55.1 4.6 81.4 13.8 15.5 5.5 29 14.3 41.4 25 10.9 9.4 21 19.6 28.5 32 8.8 14.5 15.5 29.9 19 46.6 2.4 11.5 3.1 23.2 3.4 34.9.1 2.6 0 5.3 0 7.9 0 1.6-.4 2.4-2.3 2.2-7.3-.5-14.7-.8-22-1.1-8.4-.4-16.9-.7-25.3-1-13.4-.6-26.7-1.2-40.1-1.7-8.5-.3-17.1-.2-25.6-.4-36.2-.8-72.3-.5-108.5-.2-10.5.1-21 .2-31.6.5-17.1.5-34.2 1.3-51.2 2-9.4.4-18.8.8-28.2 1.3l-10.5.6c-1.3.1-2-.3-2-1.8-1.3-36.4 6.9-70 29-99.5C58.7 51 69 42 79.8 33.4c15.6-12.3 33.3-20 52.5-24.6C144 6 155.8 3.7 167.8 2.3c9-.9 18-1.6 27.2-1.4zm-26.3 472.3c-.8-18.7-1.6-37.4-2.5-56.2-1-20.4-2-40.7-3-61.1-.6-12.7-1.1-25.4-1.7-38.1-.7-15.7-1.5-31.3-2.3-47-.6-12.8-1.1-25.6-1.8-38.4-.1-2 .7-4.8-.8-5.9-1.5-1.1-4.2-.8-6.3-1-12.7-.8-25.3-2-38-3.3-14.5-1.5-28.8-3.9-43-7.4-11.7-2.9-23.3-6.1-34.8-9.4-1.7-.5-2.6-1.1-2.5-3.1.2-3.1 0-6.1.1-9.2 0-2.6.1-2.6 2.5-2.7 4.8-.1 9.6-.4 14.5-.5 21.4-.6 42.7-1 64.1-1.5l15.1-.3c17.1-.5 34.2-.3 51.3-.7 25-.7 50 .4 75 .6 24.7.2 49.3 1.1 74 1.7 8.9.2 17.7.5 26.6.7 2.5.1 2.5.1 2.5 2.6 0 3.2-.1 6.4 0 9.5 0 1.6-.5 2.3-2.1 2.7-5.7 1.5-11.4 3.2-17 4.8-23 6.6-46.3 11.2-70.2 13.2-11.1.9-22.3 1.8-33.4 2.6-1.9.1-2.4.7-2.5 2.5-.1 4.8-.4 9.6-.6 14.5-.8 16.9-1.7 33.7-2.5 50.6-.8 16.4-1.4 32.8-2.2 49.3-.8 16.5-1.6 33.1-2.4 49.6-.8 16.6-1.5 33.3-2.2 49.9-.4 9.9-.9 19.7-1.4 29.6-.1 2.4.1 2.5 2.3 1.9 4.1-1.2 8.1-2.5 12.2-3.8 1.4-.4 2.1-1.1 2.2-2.7.8-12.6 1.7-25.1 2.4-37.7.7-11.1 1.7-22.1 3.6-33 3.3-19.2 7.4-38.3 12.4-57.1 3.6-13.4 7.3-26.8 12.9-39.6 4.7-10.9 10.9-20.8 20-28.6 9.8-8.5 20.7-15.5 32.5-21 13.5-6.3 27.7-10.8 42.1-14.5 3-.8 3-.8 3.1-3.5.4-19.7.8-39.5 1.1-59.2.1-3.2 0-3.2-3.3-3.4-5.3-.3-10.5-.4-15.8-.6-16.4-.8-32.8-1.4-49.3-2-13.5-.5-26.9-1.1-40.4-1.2-25.8-.2-51.5-.7-77.3-.5-29.9.3-59.8.3-89.7 1.6-8.5.4-17.1.8-25.6 1.2-8.9.3-17.8.4-26.6 1-5.3.3-10.5.3-15.8.6-2.9.2-2.9.2-2.9 3 .1 7 .3 14 .4 21 .2 12.6.5 25.2.7 37.8.1 3.3.1 3.3 3.2 4.2 4.8 1.3 9.7 2.6 14.5 4.1 17.9 5.5 35 12.6 50.3 23.7 9 6.5 17.1 13.7 23 23.2 5.1 8.2 8.8 17.1 11.9 26.3 6.6 19.7 11.5 39.7 15.8 60 3.6 17.3 6.8 34.6 7.8 52.3.8 13.9 1.8 27.8 2.7 41.7.1 1.7.6 2.5 2.2 3 4.2 1.2 8.4 2.6 12.5 3.9.6.2 1.2.4 1.9 0 .4-.3.5-.5.5-.7zm-27.6-9.5c-.4-4.5-.7-9-1.1-13.4-1.2-17.4-2.6-34.7-5.3-51.9-2.3-14.5-4.8-28.9-9.1-43-2.8-9.1-5.9-18.1-11.2-26.2-4.2-6.5-9.5-12.1-16.4-15.8-7-3.7-14-3.9-20.9.3-2.8 1.7-5.4 3.8-7.7 6.1-5.3 5.3-9 11.5-12.1 18.2-4.4 9.7-8.1 19.6-11.4 29.7-6.5 19.3-10 39.4-15 59.2-.6 2.2-.5 2.3 2 3.1 9.4 3.1 18.9 6.3 28.3 9.4 25.3 8.4 50.6 16.8 76 25.1 1.2.4 2.4 1.2 3.7.8.4-.5.3-1.1.2-1.6zm111.7.8c13-4.3 25.9-8.6 38.9-12.9 21.7-7.2 43.4-14.3 65.1-21.5 2.9-1 2.9-1 2.2-4l-4.5-19.2c-3.7-16-7.4-32-13.1-47.4-3.7-9.8-7.3-19.7-12.5-28.9-4-6.9-9.2-12.8-16.1-17-6.8-4.1-13.7-3.9-20.6-.3-5.2 2.7-9.6 6.5-13.2 11.2-5.3 6.8-9.1 14.4-11.9 22.6-5.3 15.5-8.8 31.4-11.2 47.6-1.5 10-3 19.9-3.9 30-.9 10.5-1.7 21-2.5 31.4-.2 3-.4 6.1-.5 9.2 1.4.3 2.6-.4 3.8-.8zm-240.5-285c-3.6 7.6-7.1 15.3-10.7 22.9-.8 1.7-1.1 3.5-1.1 5.4l1.2 60.1c.3 16.9.6 33.7 1 50.6l1.2 60.1c.2 11.6.5 23.2.7 34.8 0 2.2.9 3.3 2.7 4.3 3.8 1.9 7.6 4 11.4 5.9.8.4 1.6 1.2 3 .9-2.5-82.5-4.9-165.1-7.4-248.1-1.3 1.1-1.5 2.2-2 3.1zm371.1 237.9c1.5-.7 2-1.7 2-3.3.4-20.5.9-41 1.3-61.5l1.5-79.2c.4-21.9.9-43.8 1.4-65.7 0-1.7-.1-3.2-.8-4.8-3.9-8.2-7.7-16.4-11.6-24.7-.3-.6-.2-1.6-1.4-1.4-2.5 82.6-4.9 165.2-7.4 248.5 5.3-2.9 10.1-5.4 15-7.9z"/>
    </g>
  </switch>
</svg>
